<?xml version="1.0" standalone="no"?>
<!DOCTYPE svg PUBLIC "-//W3C//DTD SVG 20010904//EN"
 "http://www.w3.org/TR/2001/REC-SVG-20010904/DTD/svg10.dtd">
<svg version="1.0" xmlns="http://www.w3.org/2000/svg"
 width="250.000000pt" height="250.000000pt" viewBox="0 0 250.000000 250.000000"
 preserveAspectRatio="xMidYMid meet">
<metadata>
Created by potrace 1.14, written by Peter Selinger 2001-2017
</metadata>
<g transform="translate(0.000000,250.000000) scale(0.100000,-0.100000)"
fill="#000000" stroke="none">
<path d="M0 2148 l0 -348 38 15 c20 9 39 20 40 26 7 18 92 70 145 88 91 32
107 42 107 68 0 12 4 23 10 23 5 0 7 -13 3 -32 -4 -22 -3 -29 5 -24 7 4 12 1
12 -8 0 -8 5 -16 11 -18 9 -3 9 -14 -1 -42 -10 -30 -10 -40 0 -46 8 -5 10 -19
5 -41 -11 -57 -38 -121 -45 -109 -10 16 -78 24 -93 12 -15 -13 -87 -4 -87 10
0 6 -9 23 -20 38 -20 29 -21 29 -53 12 -17 -9 -36 -23 -40 -29 -4 -7 -15 -13
-22 -13 -12 0 -15 -23 -15 -130 0 -80 4 -130 10 -130 13 0 13 -37 0 -45 -7 -4
-10 -253 -10 -716 l0 -709 1250 0 1250 0 0 460 c0 253 -2 460 -4 460 -3 0 -33
-16 -67 -37 -94 -54 -624 -313 -643 -313 -9 0 -20 10 -25 23 -5 12 -18 30 -30
41 -11 10 -19 22 -16 26 7 11 -34 50 -53 50 -9 0 -53 -18 -97 -40 -80 -40
-108 -49 -88 -29 11 11 7 39 -8 49 -5 3 -2 18 5 32 9 16 10 28 4 30 -5 2 -13
19 -17 38 -5 27 -12 35 -29 35 -15 0 -56 33 -122 99 l-100 100 61 103 c43 72
65 100 70 91 5 -7 19 -13 31 -14 13 -1 29 -3 37 -5 11 -3 15 6 15 34 1 22 -2
41 -6 44 -17 9 -7 21 23 27 28 5 31 9 27 36 -4 24 -1 30 9 26 9 -4 6 5 -7 24
-24 34 -21 37 18 13 25 -16 26 -16 14 -1 -8 10 -12 23 -9 30 3 8 11 -1 18 -19
20 -50 41 -52 33 -3 -4 27 -3 40 5 40 6 0 11 7 11 15 0 8 5 15 10 15 6 0 13
-7 16 -15 9 -24 26 -17 18 7 l-6 22 29 -20 c63 -40 83 -62 83 -88 0 -24 -43
-76 -65 -76 -5 0 -3 -5 5 -10 13 -8 13 -10 -1 -10 -9 0 -24 -9 -34 -20 -17
-18 -16 -19 9 -26 26 -6 56 13 56 36 0 6 5 8 10 5 6 -3 10 -15 10 -27 0 -21
11 -21 126 -2 31 6 66 43 42 45 -47 3 -62 8 -74 23 -7 10 -17 15 -23 11 -6 -3
-11 -1 -11 4 0 6 9 11 20 11 12 0 20 7 21 18 1 27 7 64 15 95 6 25 2 33 -30
59 -20 16 -36 38 -36 50 0 20 1 21 20 3 15 -14 20 -15 20 -4 0 12 2 11 10 -1
5 -8 12 -11 16 -7 4 4 3 12 -3 18 -12 12 -7 39 7 39 4 0 10 -8 13 -18 2 -11
14 -21 26 -25 13 -3 19 -1 15 5 -4 6 -1 9 7 6 8 -3 14 -17 14 -33 1 -19 9 -31
28 -42 25 -13 33 -12 82 11 32 14 55 31 55 40 0 17 -155 179 -180 189 -12 4
-11 6 3 6 11 1 32 -8 48 -20 35 -25 39 -8 4 19 -33 26 -32 34 5 30 18 -1 38 4
50 15 17 14 20 14 20 2 0 -8 5 -15 10 -15 6 0 10 9 10 19 0 11 6 21 13 24 7 3
5 8 -8 13 -35 14 -65 48 -65 76 0 15 -5 30 -10 33 -6 4 -8 11 -5 16 4 5 -5 13
-19 19 -51 19 -22 43 38 33 32 -5 36 -3 36 16 0 16 -6 21 -25 21 -14 0 -25 5
-25 10 0 6 -11 10 -24 10 -14 0 -28 5 -31 10 -3 6 1 10 9 10 9 0 16 9 16 20 0
11 -7 20 -15 20 -9 0 -19 9 -23 19 -7 19 -10 21 -32 21 -5 0 -9 46 -9 108 -1
177 -2 192 -11 192 -18 0 -40 -12 -35 -20 6 -9 -33 -40 -50 -40 -5 0 -4 4 2 8
7 4 16 22 19 40 l7 32 -47 0 c-40 0 -51 -5 -81 -36 -19 -20 -38 -47 -41 -60
-6 -24 -64 -74 -64 -56 0 5 18 36 40 68 22 33 40 65 40 72 0 9 -145 12 -690
12 -545 0 -690 -3 -690 -12 0 -10 -2 -10 -8 -1 -5 7 -46 11 -125 11 l-117 -1
0 -349z m182 295 c19 -17 25 -63 7 -63 -16 0 0 -62 19 -78 15 -12 14 -13 -8
-10 -13 2 -29 12 -35 23 -5 11 -21 37 -34 58 -40 65 -2 118 51 70z m1053 -14
c10 -14 1 -21 -19 -13 -9 3 -13 10 -10 15 7 12 21 11 29 -2z m-965 -23 c0 -8
-4 -18 -10 -21 -5 -3 -10 3 -10 14 0 12 5 21 10 21 6 0 10 -6 10 -14z m64 -71
c-4 -8 -10 -15 -15 -15 -5 0 -9 7 -9 15 0 8 7 15 15 15 9 0 12 -6 9 -15z m22
-182 c4 -19 4 -36 1 -39 -8 -9 -25 28 -32 71 -6 37 -5 39 9 21 9 -11 19 -35
22 -53z m1526 -55 c-6 -6 -7 0 -4 19 5 21 7 23 10 9 2 -10 0 -22 -6 -28z m-28
-43 c14 -14 23 -25 19 -25 -3 0 5 -9 18 -19 13 -11 21 -22 18 -26 -4 -3 -19 5
-34 19 -16 15 -34 26 -41 26 -8 0 -14 11 -14 25 0 14 2 25 5 25 2 0 15 -11 29
-25z m-20 -341 c10 -38 0 -41 -19 -5 -13 26 -13 31 -1 31 7 0 17 -12 20 -26z
m96 -18 c0 -6 -5 -18 -10 -26 -8 -12 -10 -11 -10 8 0 13 -6 22 -15 22 -8 0
-15 4 -15 9 0 4 11 6 25 3 14 -2 25 -9 25 -16z m-45 -36 c4 -6 -5 -10 -19 -10
-14 0 -26 5 -26 10 0 6 9 10 19 10 11 0 23 -4 26 -10z m-580 -111 c11 -16 2
-17 -25 -2 -24 12 -24 13 -3 13 12 0 25 -5 28 -11z m435 -31 c0 -5 -5 -6 -11
-2 -6 3 -3 -5 6 -20 21 -32 16 -41 -11 -21 -16 10 -20 22 -16 45 3 25 7 28 18
19 8 -6 14 -16 14 -21z m-150 1 c0 -6 -4 -7 -10 -4 -5 3 -10 11 -10 16 0 6 5
7 10 4 6 -3 10 -11 10 -16z m105 1 c3 -5 1 -10 -4 -10 -6 0 -11 5 -11 10 0 6
2 10 4 10 3 0 8 -4 11 -10z m25 -81 c0 -8 -7 -6 -18 4 -10 10 -24 17 -30 17
-7 0 -12 3 -12 8 0 4 -3 18 -7 32 -5 23 -3 22 30 -12 21 -20 37 -42 37 -49z
m-10 -130 c0 -5 -4 -9 -10 -9 -5 0 -10 7 -10 16 0 8 5 12 10 9 6 -3 10 -10 10
-16z m50 -24 c7 -8 8 -15 2 -15 -5 0 -15 7 -22 15 -7 8 -8 15 -2 15 5 0 15 -7
22 -15z m-1535 -13 c-3 -3 -11 0 -18 7 -9 10 -8 11 6 5 10 -3 15 -9 12 -12z"/>
<path d="M2212 2427 c5 -22 11 -44 13 -48 3 -4 7 -31 10 -60 5 -46 4 -50 -10
-39 -8 7 -15 21 -15 31 0 11 -4 19 -9 19 -5 0 -18 22 -29 48 -12 27 -28 54
-36 61 -18 15 -62 10 -59 -6 3 -13 -58 -26 -82 -17 -15 6 -16 4 -6 -14 6 -11
11 -30 11 -41 0 -12 5 -21 10 -21 6 0 10 -11 10 -25 0 -14 4 -25 8 -25 8 0 32
-57 32 -74 0 -5 -8 -2 -17 5 -10 8 -6 0 7 -17 15 -19 28 -27 32 -20 4 6 9 8
12 5 8 -7 18 -108 17 -157 -2 -33 3 -47 23 -65 24 -21 24 -24 12 -70 -11 -41
-11 -50 0 -54 17 -6 19 -33 3 -33 -8 0 -9 -21 -5 -67 4 -38 7 -87 8 -110 1
-24 5 -43 9 -43 4 0 63 24 131 54 67 30 138 60 156 68 34 14 45 34 13 25 -12
-3 -27 4 -39 18 -12 13 -37 26 -61 30 -31 5 -41 11 -41 26 0 10 -9 24 -20 31
-11 7 -20 22 -20 33 0 11 -7 29 -15 39 -8 11 -15 30 -15 42 0 12 -4 24 -9 26
-5 2 -12 50 -16 108 l-7 105 37 20 c49 26 79 66 70 94 -3 12 -15 21 -26 21
-23 0 -23 0 -5 36 21 40 -10 86 -65 96 -26 5 -26 4 -17 -35z m-55 -569 c-3 -8
-6 -5 -6 6 -1 11 2 17 5 13 3 -3 4 -12 1 -19z"/>
<path d="M2441 2391 c-39 -10 -36 -28 8 -50 22 -12 43 -21 46 -21 3 0 5 18 5
40 0 43 -6 46 -59 31z"/>
<path d="M2440 2240 c-20 -10 -57 -41 -83 -69 -37 -40 -47 -57 -47 -85 0 -19
-4 -37 -10 -41 -26 -16 51 -102 101 -111 19 -4 45 -15 58 -26 13 -10 28 -18
32 -18 5 0 9 83 9 185 0 203 2 198 -60 165z"/>
<path d="M2395 1640 c3 -5 11 -10 16 -10 6 0 7 5 4 10 -3 6 -11 10 -16 10 -6
0 -7 -4 -4 -10z"/>
<path d="M2350 1569 c-25 -5 -67 -11 -94 -15 -27 -4 -68 -18 -90 -30 -23 -14
-58 -24 -79 -24 -21 0 -45 -6 -52 -14 -12 -12 -8 -17 30 -37 51 -27 65 -21 40
17 l-17 27 113 -7 c197 -13 200 -13 196 -2 -3 6 7 23 21 38 27 29 24 59 -5 57
-10 -1 -38 -5 -63 -10z"/>
<path d="M2472 1511 c-11 -7 -10 -10 3 -15 23 -9 25 -8 25 9 0 17 -9 19 -28 6z"/>
<path d="M1950 1461 c0 -4 11 -20 25 -35 19 -21 33 -26 69 -26 48 0 58 -7 198
-131 39 -34 59 -44 113 -54 82 -15 81 -3 -5 41 -35 19 -73 43 -85 54 -12 11
-25 20 -30 20 -5 0 -18 9 -29 19 -16 15 -238 121 -253 121 -2 0 -3 -4 -3 -9z"/>
<path d="M1810 1330 c0 -5 5 -10 11 -10 5 0 7 5 4 10 -3 6 -8 10 -11 10 -2 0
-4 -4 -4 -10z"/>
<path d="M1929 1264 c-11 -14 -10 -18 6 -30 10 -8 30 -14 44 -14 l25 0 -22 16
c-12 8 -22 19 -22 25 0 17 50 9 70 -11 24 -24 30 -25 30 -5 0 34 -105 50 -131
19z"/>
<path d="M1430 1253 c0 -5 5 -15 10 -23 8 -12 10 -11 10 8 0 12 -4 22 -10 22
-5 0 -10 -3 -10 -7z"/>
<path d="M1812 1224 c-42 -29 -23 -54 43 -54 48 0 85 19 77 39 -3 9 -10 19
-16 23 -19 13 -81 9 -104 -8z m72 -10 c24 -9 19 -34 -7 -34 -23 0 -47 17 -47
32 0 9 32 11 54 2z"/>
<path d="M1738 1203 c-26 -6 -22 -15 18 -41 52 -34 74 -25 32 14 -19 17 -41
29 -50 27z"/>
<path d="M2447 1143 c-4 -3 -7 -15 -7 -26 0 -10 -9 -21 -20 -24 -31 -8 -23
-23 12 -23 30 0 31 -1 13 -14 -26 -18 -254 -116 -270 -116 -7 0 -18 -7 -25
-15 -7 -8 -27 -17 -46 -21 -19 -3 -37 -10 -40 -15 -7 -12 9 -11 43 2 15 6 37
15 48 19 49 19 112 44 140 55 17 7 44 18 60 25 17 7 38 16 47 21 9 5 36 12 59
15 l41 7 -6 40 c-10 62 -30 90 -49 70z"/>
<path d="M1263 1065 c-3 -9 -3 -18 -1 -21 9 -8 58 18 52 27 -9 15 -44 10 -51
-6z"/>
<path d="M2152 1061 c-23 -9 -40 -20 -36 -24 4 -4 -6 -7 -22 -8 -25 0 -26 -2
-9 -9 11 -4 31 -6 45 -3 20 4 22 2 10 -6 -8 -6 -33 -11 -55 -11 -27 0 -35 -3
-26 -9 11 -7 9 -11 -8 -21 -33 -17 -63 -21 -77 -9 -9 7 -14 5 -18 -9 -4 -11
-16 -24 -29 -30 -12 -6 -16 -11 -8 -11 11 -1 11 -4 0 -18 -12 -15 -12 -16 5
-10 10 4 24 3 31 -3 10 -8 15 -8 21 1 5 8 3 9 -6 4 -8 -5 -11 -4 -7 2 4 6 19
13 34 16 27 5 98 28 157 50 15 5 43 20 61 33 19 12 46 24 62 26 16 2 29 10 31
19 3 14 -3 15 -37 9 -42 -7 -70 7 -56 30 9 14 -13 12 -63 -9z"/>
<path d="M1865 1060 c-27 -5 -28 -6 -9 -12 12 -3 28 -2 35 3 20 12 8 16 -26 9z"/>
<path d="M2320 1050 c0 -5 9 -10 19 -10 11 0 23 5 26 10 4 6 -5 10 -19 10 -14
0 -26 -4 -26 -10z"/>
<path d="M1780 1020 c-18 -12 -2 -12 25 0 13 6 15 9 5 9 -8 0 -22 -4 -30 -9z"/>
<path d="M1488 1003 c6 -2 18 -2 25 0 6 3 1 5 -13 5 -14 0 -19 -2 -12 -5z"/>
<path d="M2018 993 c7 -3 16 -2 19 1 4 3 -2 6 -13 5 -11 0 -14 -3 -6 -6z"/>
<path d="M2461 986 l-24 -13 27 -7 c15 -4 24 -11 21 -16 -3 -5 -1 -11 5 -15 6
-4 10 8 10 29 0 39 -4 42 -39 22z"/>
<path d="M1413 983 c-20 -7 -15 -51 6 -63 35 -18 108 -9 94 13 -4 6 2 8 15 5
12 -3 29 0 39 8 10 7 13 14 6 14 -7 0 -10 6 -7 14 7 17 -41 15 -59 -3 -6 -6
-29 -11 -51 -11 -37 0 -39 1 -20 15 14 11 15 14 4 14 -8 0 -21 -3 -27 -6z"/>
<path d="M1995 859 c-37 -18 -65 -39 -54 -39 3 0 30 13 60 30 60 33 56 40 -6
9z"/>
<path d="M2145 850 c-3 -5 -1 -10 4 -10 6 0 11 5 11 10 0 6 -2 10 -4 10 -3 0
-8 -4 -11 -10z"/>
</g>
</svg>
