<?xml version="1.0" standalone="no"?>
<!DOCTYPE svg PUBLIC "-//W3C//DTD SVG 20010904//EN"
 "http://www.w3.org/TR/2001/REC-SVG-20010904/DTD/svg10.dtd">
<svg version="1.0" xmlns="http://www.w3.org/2000/svg"
 width="600.000000pt" height="600.000000pt" viewBox="0 0 600.000000 600.000000"
 preserveAspectRatio="xMidYMid meet">
<metadata>
Created by potrace 1.14, written by Peter Selinger 2001-2017
</metadata>
<g transform="translate(0.000000,600.000000) scale(0.100000,-0.100000)"
fill="#000000" stroke="none">
<path d="M0 3000 l0 -3000 3000 0 3000 0 0 3000 0 3000 -3000 0 -3000 0 0
-3000z m3101 1447 c20 -14 40 -40 51 -67 12 -28 100 -582 231 -1445 l213
-1400 -164 -3 c-91 -1 -166 -1 -168 1 -2 2 -61 440 -130 973 -69 533 -129 977
-132 987 -5 13 -265 -1920 -262 -1955 0 -5 -77 -8 -171 -8 l-171 0 5 23 c3 12
103 673 223 1470 l219 1447 111 0 c99 0 115 -2 145 -23z"/>
</g>
</svg>
