<svg width="200" height="86" viewBox="0 0 200 86" fill="none" xmlns="http://www.w3.org/2000/svg">
  <path d="M191.235 85.3516C190.765 86.0336 189.83 86.2054 189.148 85.7352L178.034 78.0727C177.352 77.6025 177.18 76.6684 177.65 75.9864C178.12 75.3043 179.054 75.1326 179.736 75.6028L189.616 82.4138L196.427 72.5341C196.897 71.852 197.832 71.6803 198.514 72.1505C199.196 72.6207 199.367 73.5548 198.897 74.2369L191.235 85.3516ZM190 84.5002C188.524 84.7714 188.525 84.7716 188.525 84.7717C188.525 84.7718 188.525 84.7719 188.525 84.772C188.525 84.7721 188.525 84.7722 188.525 84.7723C188.525 84.7724 188.525 84.7724 188.525 84.7723C188.525 84.772 188.524 84.7712 188.524 84.7699C188.524 84.7672 188.523 84.7623 188.521 84.7552C188.519 84.7412 188.514 84.7185 188.508 84.6874C188.496 84.6252 188.476 84.5293 188.449 84.4011C188.394 84.1448 188.308 83.7596 188.185 83.2571C187.939 82.2521 187.545 80.7784 186.956 78.9291L189.815 78.0194C190.425 79.9381 190.838 81.4774 191.099 82.5433C191.23 83.0763 191.323 83.4911 191.383 83.7759C191.414 83.9183 191.436 84.0282 191.451 84.1042C191.458 84.1422 191.464 84.1717 191.468 84.1926C191.47 84.203 191.472 84.2113 191.473 84.2173C191.473 84.2204 191.474 84.2229 191.474 84.2248C191.474 84.2258 191.475 84.2266 191.475 84.2273C191.475 84.2276 191.475 84.2279 191.475 84.2282C191.475 84.2284 191.475 84.2285 191.475 84.2286C191.475 84.2288 191.475 84.229 190 84.5002ZM182.377 67.3851C180.782 64.0188 178.807 60.334 176.374 56.4879L178.91 54.8842C181.413 58.8417 183.446 62.6342 185.088 66.1008L182.377 67.3851ZM169.132 46.4297C166.645 43.379 163.854 40.3121 160.725 37.2982L162.807 35.1376C166.026 38.2386 168.898 41.3945 171.458 44.534L169.132 46.4297ZM151.281 29.2256C148.104 26.8185 144.664 24.493 140.941 22.2907L142.468 19.7086C146.291 21.97 149.826 24.3593 153.093 26.8343L151.281 29.2256ZM129.949 16.5658C126.305 14.9059 122.44 13.3634 118.34 11.9644L119.308 9.12514C123.501 10.5557 127.459 12.1346 131.193 13.8358L129.949 16.5658ZM106.42 8.48978C102.526 7.53611 98.449 6.70551 94.1818 6.01461L94.6613 3.05318C99.0054 3.75654 103.16 4.60286 107.134 5.57586L106.42 8.48978ZM81.7516 4.46066C77.731 4.09923 73.5608 3.85486 69.2356 3.73849L69.3163 0.739573C73.7025 0.857585 77.9354 1.10551 82.0202 1.47271L81.7516 4.46066ZM56.7294 3.75565C52.6799 3.87122 48.5074 4.093 44.2082 4.42838L43.9749 1.43747C48.3219 1.09836 52.5437 0.873883 56.6439 0.756874L56.7294 3.75565ZM31.7618 5.67944C27.7411 6.17108 23.6185 6.75723 19.3915 7.443L18.9111 4.48171C23.1757 3.78984 27.3371 3.19814 31.3977 2.70162L31.7618 5.67944ZM7.08081 9.66728C5.01604 10.0774 2.92803 10.5101 0.816569 10.9662L0.183233 8.03379C2.31078 7.57429 4.41509 7.13811 6.4964 6.72475L7.08081 9.66728ZM191.235 85.3516C190.765 86.0336 189.83 86.2054 189.148 85.7352L178.034 78.0727C177.352 77.6025 177.18 76.6684 177.65 75.9864C178.12 75.3043 179.054 75.1326 179.736 75.6028L189.616 82.4138L196.427 72.5341C196.897 71.852 197.832 71.6803 198.514 72.1505C199.196 72.6207 199.367 73.5548 198.897 74.2369L191.235 85.3516ZM190 84.5002C188.524 84.7714 188.525 84.7716 188.525 84.7717C188.525 84.7718 188.525 84.7719 188.525 84.772C188.525 84.7721 188.525 84.7722 188.525 84.7723C188.525 84.7724 188.525 84.7724 188.525 84.7723C188.525 84.772 188.524 84.7712 188.524 84.7699C188.524 84.7672 188.523 84.7623 188.521 84.7552C188.519 84.7412 188.514 84.7185 188.508 84.6874C188.496 84.6252 188.476 84.5293 188.449 84.4011C188.394 84.1448 188.308 83.7596 188.185 83.2571C187.939 82.2521 187.545 80.7784 186.956 78.9291L189.815 78.0194C190.425 79.9381 190.838 81.4774 191.099 82.5433C191.23 83.0763 191.323 83.4911 191.383 83.7759C191.414 83.9183 191.436 84.0282 191.451 84.1042C191.458 84.1422 191.464 84.1717 191.468 84.1926C191.47 84.203 191.472 84.2113 191.473 84.2173C191.473 84.2204 191.474 84.2229 191.474 84.2248C191.474 84.2258 191.475 84.2266 191.475 84.2273C191.475 84.2276 191.475 84.2279 191.475 84.2282C191.475 84.2284 191.475 84.2285 191.475 84.2286C191.475 84.2288 191.475 84.229 190 84.5002ZM182.377 67.3851C180.782 64.0188 178.807 60.334 176.374 56.4879L178.91 54.8842C181.413 58.8417 183.446 62.6342 185.088 66.1008L182.377 67.3851ZM169.132 46.4297C166.645 43.379 163.854 40.3121 160.725 37.2982L162.807 35.1376C166.026 38.2386 168.898 41.3945 171.458 44.534L169.132 46.4297ZM151.281 29.2256C148.104 26.8185 144.664 24.493 140.941 22.2907L142.468 19.7086C146.291 21.97 149.826 24.3593 153.093 26.8343L151.281 29.2256ZM129.949 16.5658C126.305 14.9059 122.44 13.3634 118.34 11.9644L119.308 9.12514C123.501 10.5557 127.459 12.1346 131.193 13.8358L129.949 16.5658ZM106.42 8.48978C102.526 7.53611 98.449 6.70551 94.1818 6.01461L94.6613 3.05318C99.0054 3.75654 103.16 4.60286 107.134 5.57586L106.42 8.48978ZM81.7516 4.46066C77.731 4.09923 73.5608 3.85486 69.2356 3.73849L69.3163 0.739573C73.7025 0.857585 77.9354 1.10551 82.0202 1.47271L81.7516 4.46066ZM56.7294 3.75565C52.6799 3.87122 48.5074 4.093 44.2082 4.42838L43.9749 1.43747C48.3219 1.09836 52.5437 0.873883 56.6439 0.756874L56.7294 3.75565ZM31.7618 5.67944C27.7411 6.17108 23.6185 6.75723 19.3915 7.443L18.9111 4.48171C23.1757 3.78984 27.3371 3.19814 31.3977 2.70162L31.7618 5.67944ZM7.08081 9.66728C5.01604 10.0774 2.92803 10.5101 0.816569 10.9662L0.183233 8.03379C2.31078 7.57429 4.41509 7.13811 6.4964 6.72475L7.08081 9.66728Z" fill="currentColor"/>
</svg>
