<svg width="104" height="148" viewBox="0 0 104 148" fill="none" xmlns="http://www.w3.org/2000/svg">
  <path d="M77.822 144.947C78.3448 144.769 78.6244 144.201 78.4465 143.678L75.547 135.158C75.3691 134.635 74.801 134.355 74.2781 134.533C73.7553 134.711 73.4757 135.279 73.6536 135.802L76.231 143.375L68.6575 145.953C68.1347 146.131 67.8551 146.699 68.033 147.222C68.2109 147.745 68.779 148.024 69.3019 147.846L77.822 144.947ZM103.728 4.52652C101.8 4.07452 99.8904 3.66456 97.9999 3.29566L97.6168 5.25864C99.4825 5.62268 101.368 6.02737 103.271 6.47372L103.728 4.52652ZM86.549 1.52818C82.5914 1.08259 78.7324 0.823912 74.9799 0.741966L74.9363 2.74149C78.6268 2.82208 82.4257 3.07657 86.3252 3.51562L86.549 1.52818ZM63.3254 1.07226C59.3405 1.39433 55.5034 1.92952 51.8258 2.66308L52.217 4.62444C55.8159 3.90657 59.5761 3.38181 63.4865 3.06576L63.3254 1.07226ZM40.5463 5.6939C36.7484 7.00046 33.1756 8.54585 29.8459 10.3081L30.7815 12.0758C34.0156 10.3641 37.4928 8.8594 41.1969 7.58512L40.5463 5.6939ZM20.0345 16.6677C16.8844 19.1524 14.0698 21.8834 11.6177 24.8284L13.1546 26.1082C15.5141 23.2744 18.2278 20.64 21.2731 18.238L20.0345 16.6677ZM5.18906 34.6437C3.44174 38.1504 2.12329 41.8507 1.26312 45.7058L3.21512 46.1414C4.03975 42.4456 5.30355 38.8984 6.97914 35.5357L5.18906 34.6437ZM0.0811306 57.374C0.136677 61.1629 0.604072 65.0466 1.50371 68.9948L3.45373 68.5505C2.58396 64.7333 2.13434 60.9887 2.08092 57.3446L0.0811306 57.374ZM5.1411 80.1288C6.59745 83.5525 8.37724 87.002 10.4927 90.4594L12.1987 89.4156C10.1317 86.0373 8.39753 82.6748 6.98151 79.3459L5.1411 80.1288ZM17.2055 100.024C19.5095 102.927 22.0583 105.823 24.8592 108.704L26.2932 107.31C23.5366 104.475 21.0323 101.628 18.7719 98.7808L17.2055 100.024ZM33.2981 116.661C36.1161 119.107 39.1263 121.534 42.3335 123.937L43.5324 122.336C40.3621 119.961 37.3894 117.564 34.6092 115.151L33.2981 116.661ZM51.8247 130.586C54.9518 132.639 58.2329 134.668 61.6713 136.668L62.6771 134.939C59.2686 132.956 56.0182 130.947 52.9222 128.914L51.8247 130.586ZM71.8046 142.24C73.5218 143.133 75.2729 144.019 77.0582 144.897L77.9414 143.103C76.1691 142.23 74.4311 141.351 72.7272 140.465L71.8046 142.24ZM77.822 144.947C78.3448 144.769 78.6244 144.201 78.4465 143.678L75.547 135.158C75.3691 134.635 74.801 134.355 74.2781 134.533C73.7553 134.711 73.4757 135.279 73.6536 135.802L76.231 143.375L68.6575 145.953C68.1347 146.131 67.8551 146.699 68.033 147.222C68.2109 147.745 68.779 148.024 69.3019 147.846L77.822 144.947ZM103.728 4.52652C101.8 4.07452 99.8904 3.66456 97.9999 3.29566L97.6168 5.25864C99.4825 5.62268 101.368 6.02737 103.271 6.47372L103.728 4.52652ZM86.549 1.52818C82.5914 1.08259 78.7324 0.823912 74.9799 0.741966L74.9363 2.74149C78.6268 2.82208 82.4257 3.07657 86.3252 3.51562L86.549 1.52818ZM63.3254 1.07226C59.3405 1.39433 55.5034 1.92952 51.8258 2.66308L52.217 4.62444C55.8159 3.90657 59.5761 3.38181 63.4865 3.06576L63.3254 1.07226ZM40.5463 5.6939C36.7484 7.00046 33.1756 8.54585 29.8459 10.3081L30.7815 12.0758C34.0156 10.3641 37.4928 8.8594 41.1969 7.58512L40.5463 5.6939ZM20.0345 16.6677C16.8844 19.1524 14.0698 21.8834 11.6177 24.8284L13.1546 26.1082C15.5141 23.2744 18.2278 20.64 21.2731 18.238L20.0345 16.6677ZM5.18906 34.6437C3.44174 38.1504 2.12329 41.8507 1.26312 45.7058L3.21512 46.1414C4.03975 42.4456 5.30355 38.8984 6.97914 35.5357L5.18906 34.6437ZM0.0811306 57.374C0.136677 61.1629 0.604072 65.0466 1.50371 68.9948L3.45373 68.5505C2.58396 64.7333 2.13434 60.9887 2.08092 57.3446L0.0811306 57.374ZM5.1411 80.1288C6.59745 83.5525 8.37724 87.002 10.4927 90.4594L12.1987 89.4156C10.1317 86.0373 8.39753 82.6748 6.98151 79.3459L5.1411 80.1288ZM17.2055 100.024C19.5095 102.927 22.0583 105.823 24.8592 108.704L26.2932 107.31C23.5366 104.475 21.0323 101.628 18.7719 98.7808L17.2055 100.024ZM33.2981 116.661C36.1161 119.107 39.1263 121.534 42.3335 123.937L43.5324 122.336C40.3621 119.961 37.3894 117.564 34.6092 115.151L33.2981 116.661ZM51.8247 130.586C54.9518 132.639 58.2329 134.668 61.6713 136.668L62.6771 134.939C59.2686 132.956 56.0182 130.947 52.9222 128.914L51.8247 130.586ZM71.8046 142.24C73.5218 143.133 75.2729 144.019 77.0582 144.897L77.9414 143.103C76.1691 142.23 74.4311 141.351 72.7272 140.465L71.8046 142.24Z" fill="currentColor"/>
</svg>
