<svg width="200" height="97" viewBox="0 0 200 97" fill="none" xmlns="http://www.w3.org/2000/svg">
  <path d="M190.847 96.2327C191.227 96.633 191.86 96.649 192.261 96.2685L198.783 90.0676C199.184 89.6871 199.2 89.0541 198.819 88.6538C198.439 88.2536 197.806 88.2375 197.405 88.6181L191.607 94.13L186.095 88.3318C185.715 87.9316 185.082 87.9155 184.682 88.2961C184.281 88.6766 184.265 89.3095 184.646 89.7098L190.847 96.2327ZM1.87117 48.6576C2.84549 46.929 3.86283 45.2518 4.92091 43.6254L3.24447 42.5348C2.16319 44.1968 1.12389 45.9102 0.128865 47.6756L1.87117 48.6576ZM11.9071 34.2774C14.4808 31.2689 17.2171 28.4826 20.0944 25.9138L18.7624 24.4219C15.8189 27.0498 13.0199 29.9 10.3873 32.9773L11.9071 34.2774ZM29.3087 18.7322C32.5514 16.5338 35.9218 14.5611 39.3964 12.809L38.4959 11.0232C34.9466 12.8129 31.502 14.829 28.1864 17.0768L29.3087 18.7322ZM50.1516 8.19486C53.8228 6.87688 57.5753 5.77577 61.3855 4.8865L60.9309 2.93885C57.048 3.8451 53.2215 4.96777 49.4758 6.31249L50.1516 8.19486ZM72.928 2.85367C76.8022 2.38504 80.7095 2.12044 84.6265 2.05485L84.593 0.0551347C80.6083 0.121853 76.632 0.391047 72.6878 0.868138L72.928 2.85367ZM96.3499 2.44736C100.248 2.77249 104.133 3.29016 107.98 3.99528L108.341 2.02804C104.429 1.3112 100.48 0.784871 96.5161 0.45428L96.3499 2.44736ZM119.403 6.67272C123.172 7.75383 126.88 9.01907 130.502 10.4631L131.243 8.60529C127.558 7.13626 123.787 5.84952 119.955 4.75024L119.403 6.67272ZM141.159 15.3624C144.633 17.1859 147.995 19.1874 151.22 21.3613L152.338 19.7029C149.051 17.487 145.625 15.448 142.088 13.5915L141.159 15.3624ZM160.539 28.4601C163.506 31.0121 166.306 33.7354 168.916 36.6242L170.4 35.2835C167.732 32.3305 164.871 29.5487 161.843 26.9439L160.539 28.4601ZM176.159 45.7992C178.352 49.0025 180.331 52.3646 182.071 55.8799L183.863 54.993C182.081 51.3913 180.054 47.9481 177.809 44.6692L176.159 45.7992ZM186.48 66.6797C187.672 70.3288 188.622 74.1147 189.308 78.0327L191.278 77.6876C190.576 73.676 189.603 69.798 188.381 66.0587L186.48 66.6797ZM190.534 89.6267C190.609 91.563 190.622 93.527 190.572 95.5185L192.571 95.5691C192.623 93.5354 192.609 91.5286 192.532 89.5493L190.534 89.6267ZM190.847 96.2327C191.227 96.633 191.86 96.649 192.261 96.2685L198.783 90.0676C199.184 89.6871 199.2 89.0541 198.819 88.6538C198.439 88.2536 197.806 88.2375 197.405 88.6181L191.607 94.13L186.095 88.3318C185.715 87.9316 185.082 87.9155 184.682 88.2961C184.281 88.6766 184.265 89.3095 184.646 89.7098L190.847 96.2327ZM1.87117 48.6576C2.84549 46.929 3.86283 45.2518 4.92091 43.6254L3.24447 42.5348C2.16319 44.1968 1.12389 45.9102 0.128865 47.6756L1.87117 48.6576ZM11.9071 34.2774C14.4808 31.2689 17.2171 28.4826 20.0944 25.9138L18.7624 24.4219C15.8189 27.0498 13.0199 29.9 10.3873 32.9773L11.9071 34.2774ZM29.3087 18.7322C32.5514 16.5338 35.9218 14.5611 39.3964 12.809L38.4959 11.0232C34.9466 12.8129 31.502 14.829 28.1864 17.0768L29.3087 18.7322ZM50.1516 8.19486C53.8228 6.87688 57.5753 5.77577 61.3855 4.8865L60.9309 2.93885C57.048 3.8451 53.2215 4.96777 49.4758 6.31249L50.1516 8.19486ZM72.928 2.85367C76.8022 2.38504 80.7095 2.12044 84.6265 2.05485L84.593 0.0551347C80.6083 0.121853 76.632 0.391047 72.6878 0.868138L72.928 2.85367ZM96.3499 2.44736C100.248 2.77249 104.133 3.29016 107.98 3.99528L108.341 2.02804C104.429 1.3112 100.48 0.784871 96.5161 0.45428L96.3499 2.44736ZM119.403 6.67272C123.172 7.75383 126.88 9.01907 130.502 10.4631L131.243 8.60529C127.558 7.13626 123.787 5.84952 119.955 4.75024L119.403 6.67272ZM141.159 15.3624C144.633 17.1859 147.995 19.1874 151.22 21.3613L152.338 19.7029C149.051 17.487 145.625 15.448 142.088 13.5915L141.159 15.3624ZM160.539 28.4601C163.506 31.0121 166.306 33.7354 168.916 36.6242L170.4 35.2835C167.732 32.3305 164.871 29.5487 161.843 26.9439L160.539 28.4601ZM176.159 45.7992C178.352 49.0025 180.331 52.3646 182.071 55.8799L183.863 54.993C182.081 51.3913 180.054 47.9481 177.809 44.6692L176.159 45.7992ZM186.48 66.6797C187.672 70.3288 188.622 74.1147 189.308 78.0327L191.278 77.6876C190.576 73.676 189.603 69.798 188.381 66.0587L186.48 66.6797ZM190.534 89.6267C190.609 91.563 190.622 93.527 190.572 95.5185L192.571 95.5691C192.623 93.5354 192.609 91.5286 192.532 89.5493L190.534 89.6267Z" fill="currentColor"/>
</svg>
