<svg width="72" height="74" viewBox="0 0 72 74" fill="none" xmlns="http://www.w3.org/2000/svg">
  <path d="M60.8238 72.51C60.9197 73.0539 61.4383 73.417 61.9822 73.3211L70.8455 71.7585C71.3894 71.6626 71.7526 71.144 71.6567 70.6001C71.5608 70.0562 71.0422 69.693 70.4983 69.7889L62.6198 71.1779L61.2308 63.2994C61.1349 62.7555 60.6163 62.3923 60.0724 62.4882C59.5285 62.5841 59.1653 63.1028 59.2612 63.6467L60.8238 72.51ZM1.45459 6.83651C3.23139 5.92958 5.02416 5.17171 6.82502 4.55418L6.17628 2.66232C4.28551 3.31068 2.40571 4.10555 0.545329 5.05515L1.45459 6.83651ZM18.2241 2.43881C22.1329 2.29606 26.0113 2.72812 29.779 3.65378L30.2561 1.71154C26.3195 0.744359 22.2559 0.290236 18.1511 0.440146L18.2241 2.43881ZM40.6673 7.82996C44.1063 9.64812 47.3528 11.8711 50.3258 14.4169L51.6267 12.8978C48.5449 10.2588 45.1761 7.95139 41.602 6.06184L40.6673 7.82996ZM58.3412 22.938C60.711 26.0799 62.7147 29.4627 64.2713 32.9993L66.1018 32.1936C64.4801 28.5089 62.3964 24.993 59.938 21.7336L58.3412 22.938ZM67.5465 44.1642C68.1207 47.9876 68.1479 51.8783 67.5444 55.7481L69.5205 56.0563C70.1571 51.9743 70.1269 47.8792 69.5243 43.8671L67.5465 44.1642ZM63.9904 66.7569C63.1383 68.4471 62.1409 70.1185 60.9895 71.7627L62.6278 72.9099C63.8333 71.1884 64.8803 69.4346 65.7763 67.6572L63.9904 66.7569ZM60.8238 72.51C60.9197 73.0539 61.4383 73.417 61.9822 73.3211L70.8455 71.7585C71.3894 71.6626 71.7526 71.144 71.6567 70.6001C71.5608 70.0562 71.0422 69.693 70.4983 69.7889L62.6198 71.1779L61.2308 63.2994C61.1349 62.7555 60.6163 62.3923 60.0724 62.4882C59.5285 62.5841 59.1653 63.1028 59.2612 63.6467L60.8238 72.51ZM1.45459 6.83651C3.23139 5.92958 5.02416 5.17171 6.82502 4.55418L6.17628 2.66232C4.28551 3.31068 2.40571 4.10555 0.545329 5.05515L1.45459 6.83651ZM18.2241 2.43881C22.1329 2.29606 26.0113 2.72812 29.779 3.65378L30.2561 1.71154C26.3195 0.744359 22.2559 0.290236 18.1511 0.440146L18.2241 2.43881ZM40.6673 7.82996C44.1063 9.64812 47.3528 11.8711 50.3258 14.4169L51.6267 12.8978C48.5449 10.2588 45.1761 7.95139 41.602 6.06184L40.6673 7.82996ZM58.3412 22.938C60.711 26.0799 62.7147 29.4627 64.2713 32.9993L66.1018 32.1936C64.4801 28.5089 62.3964 24.993 59.938 21.7336L58.3412 22.938ZM67.5465 44.1642C68.1207 47.9876 68.1479 51.8783 67.5444 55.7481L69.5205 56.0563C70.1571 51.9743 70.1269 47.8792 69.5243 43.8671L67.5465 44.1642ZM63.9904 66.7569C63.1383 68.4471 62.1409 70.1185 60.9895 71.7627L62.6278 72.9099C63.8333 71.1884 64.8803 69.4346 65.7763 67.6572L63.9904 66.7569Z" fill="currentColor"/>
</svg>
