<svg width="72" height="46" viewBox="0 0 72 46" fill="none" xmlns="http://www.w3.org/2000/svg">
  <path d="M1.08471 38.3755C0.739791 38.6048 0.646115 39.0704 0.875475 39.4153L4.61311 45.036C4.84247 45.3809 5.30802 45.4746 5.65293 45.2453C5.99785 45.0159 6.09152 44.5503 5.86216 44.2054L2.53982 39.2092L7.53602 35.8869C7.88093 35.6575 7.97461 35.192 7.74525 34.8471C7.51589 34.5022 7.05035 34.4085 6.70543 34.6378L1.08471 38.3755ZM33.1906 0.774612C32.79 0.669365 32.3799 0.908811 32.2746 1.30943C32.1694 1.71005 32.4088 2.12014 32.8094 2.22538L33.1906 0.774612ZM1.35205 39.7353C21.9015 43.8702 37.8964 44.5705 49.4123 43.0246C60.8704 41.4864 68.1092 37.6903 70.7887 32.5993C73.5307 27.3894 71.3159 21.2773 64.9985 15.6583C58.6588 10.0196 48.0032 4.66607 33.1906 0.774612L32.8094 2.22538C47.4968 6.08393 57.9037 11.3554 64.0016 16.7791C70.1217 22.2227 71.7193 27.6105 69.4613 31.9007C67.1408 36.3097 60.5671 40.0136 49.2127 41.5379C37.9161 43.0545 22.0985 42.3798 1.64795 38.2647L1.35205 39.7353Z" fill="currentColor"/>
</svg>
