<svg width="203" height="77" viewBox="0 0 203 77" fill="none" xmlns="http://www.w3.org/2000/svg">
  <path fill="currentColor" d="M196.586 66.6063C197.068 66.8769 197.678 66.7061 197.948 66.2247L202.359 58.3794C202.629 57.898 202.458 57.2883 201.977 57.0177C201.496 56.747 200.886 56.9179 200.615 57.3993L196.695 64.3729L189.721 60.4524C189.24 60.1818 188.63 60.3526 188.36 60.8341C188.089 61.3155 188.26 61.9252 188.741 62.1958L196.586 66.6063ZM0.999872 76.5068L1.97691 76.7198C2.39968 74.7811 2.87869 72.8788 3.4116 71.0132L2.45006 70.7385L1.48852 70.4639C0.943924 72.3704 0.454585 74.3138 0.0228318 76.2937L0.999872 76.5068ZM6.42169 59.6261L7.33916 60.0239C8.91416 56.3913 10.7098 52.9235 12.7043 49.622L11.8484 49.105L10.9924 48.5879C8.95209 51.9653 7.11519 55.5127 5.50421 59.2283L6.42169 59.6261ZM18.6189 39.4219L19.3987 40.0479C21.8513 36.9929 24.4923 34.1161 27.2979 31.4195L26.605 30.6986L25.912 29.9776C23.0461 32.7321 20.3468 35.6722 17.8391 38.7958L18.6189 39.4219ZM35.6203 23.0459L36.2201 23.846C39.3413 21.5065 42.604 19.3504 45.984 17.3798L45.4803 16.5159L44.9767 15.652C41.5321 17.6602 38.2051 19.8587 35.0206 22.2457L35.6203 23.0459ZM56.0112 11.1283L56.418 12.0418C59.983 10.4544 63.6396 9.0522 67.364 7.8374L67.0539 6.8867L66.7438 5.93599C62.9551 7.17178 59.2338 8.59864 55.6044 10.2148L56.0112 11.1283ZM78.4706 3.78739L78.6843 4.76429C82.506 3.92836 86.3708 3.28059 90.2552 2.82294L90.1382 1.82981L90.0212 0.836675C86.0722 1.30194 82.1428 1.96051 78.257 2.81048L78.4706 3.78739ZM101.942 1.02209L101.961 2.02191C105.881 1.94661 109.797 2.06541 113.683 2.38014L113.764 1.38341L113.845 0.386669C109.891 0.0664843 105.909 -0.054291 101.922 0.0222746L101.942 1.02209ZM125.493 2.94526L125.31 3.92823C129.167 4.64915 132.969 5.57325 136.691 6.70232L136.981 5.74538L137.271 4.78843C133.477 3.63756 129.604 2.69628 125.677 1.96228L125.493 2.94526ZM148.085 9.82989L147.685 10.7463C151.271 12.3127 154.749 14.0917 158.093 16.0851L158.605 15.2262L159.117 14.3672C155.699 12.3295 152.146 10.5124 148.485 8.91349L148.085 9.82989ZM168.336 21.9413L167.714 22.724C170.753 25.1403 173.633 27.7716 176.329 30.6199L177.056 29.9324L177.782 29.2449C175.019 26.3267 172.069 23.632 168.959 21.1586L168.336 21.9413ZM184.538 39.0686L183.72 39.6449C185.933 42.7821 187.955 46.121 189.763 49.6638L190.654 49.2092L191.544 48.7545C189.693 45.1271 187.622 41.7069 185.355 38.4922L184.538 39.0686ZM195.288 60.0536L194.344 60.3846C194.985 62.2131 195.576 64.0863 196.114 66.0045L197.077 65.7346L198.039 65.4647C197.49 63.5059 196.887 61.5919 196.232 59.7227L195.288 60.0536ZM196.586 66.6063C197.068 66.8769 197.678 66.7061 197.948 66.2247L202.359 58.3794C202.629 57.898 202.458 57.2883 201.977 57.0177C201.496 56.747 200.886 56.9179 200.615 57.3993L196.695 64.3729L189.721 60.4524C189.24 60.1818 188.63 60.3526 188.36 60.8341C188.089 61.3155 188.26 61.9252 188.741 62.1958L196.586 66.6063ZM0.999872 76.5068L1.97691 76.7198C2.39968 74.7811 2.87869 72.8788 3.4116 71.0132L2.45006 70.7385L1.48852 70.4639C0.943924 72.3704 0.454585 74.3138 0.0228318 76.2937L0.999872 76.5068ZM6.42169 59.6261L7.33916 60.0239C8.91416 56.3913 10.7098 52.9235 12.7043 49.622L11.8484 49.105L10.9924 48.5879C8.95209 51.9653 7.11519 55.5127 5.50421 59.2283L6.42169 59.6261ZM18.6189 39.4219L19.3987 40.0479C21.8513 36.9929 24.4923 34.1161 27.2979 31.4195L26.605 30.6986L25.912 29.9776C23.0461 32.7321 20.3468 35.6722 17.8391 38.7958L18.6189 39.4219ZM35.6203 23.0459L36.2201 23.846C39.3413 21.5065 42.604 19.3504 45.984 17.3798L45.4803 16.5159L44.9767 15.652C41.5321 17.6602 38.2051 19.8587 35.0206 22.2457L35.6203 23.0459ZM56.0112 11.1283L56.418 12.0418C59.983 10.4544 63.6396 9.0522 67.364 7.8374L67.0539 6.8867L66.7438 5.93599C62.9551 7.17178 59.2338 8.59864 55.6044 10.2148L56.0112 11.1283ZM78.4706 3.78739L78.6843 4.76429C82.506 3.92836 86.3708 3.28059 90.2552 2.82294L90.1382 1.82981L90.0212 0.836675C86.0722 1.30194 82.1428 1.96051 78.257 2.81048L78.4706 3.78739ZM101.942 1.02209L101.961 2.02191C105.881 1.94661 109.797 2.06541 113.683 2.38014L113.764 1.38341L113.845 0.386669C109.891 0.0664843 105.909 -0.054291 101.922 0.0222746L101.942 1.02209ZM125.493 2.94526L125.31 3.92823C129.167 4.64915 132.969 5.57325 136.691 6.70232L136.981 5.74538L137.271 4.78843C133.477 3.63756 129.604 2.69628 125.677 1.96228L125.493 2.94526ZM148.085 9.82989L147.685 10.7463C151.271 12.3127 154.749 14.0917 158.093 16.0851L158.605 15.2262L159.117 14.3672C155.699 12.3295 152.146 10.5124 148.485 8.91349L148.085 9.82989ZM168.336 21.9413L167.714 22.724C170.753 25.1403 173.633 27.7716 176.329 30.6199L177.056 29.9324L177.782 29.2449C175.019 26.3267 172.069 23.632 168.959 21.1586L168.336 21.9413ZM184.538 39.0686L183.72 39.6449C185.933 42.7821 187.955 46.121 189.763 49.6638L190.654 49.2092L191.544 48.7545C189.693 45.1271 187.622 41.7069 185.355 38.4922L184.538 39.0686ZM195.288 60.0536L194.344 60.3846C194.985 62.2131 195.576 64.0863 196.114 66.0045L197.077 65.7346L198.039 65.4647C197.49 63.5059 196.887 61.5919 196.232 59.7227L195.288 60.0536Z" />
</svg>
