<svg width="186" height="94" viewBox="0 0 186 94" fill="none" xmlns="http://www.w3.org/2000/svg">
  <path fill="currentColor" d="M176.91 93.0774C177.237 93.522 177.864 93.6168 178.308 93.2891L185.553 87.9496C185.998 87.6219 186.092 86.9959 185.765 86.5513C185.437 86.1067 184.811 86.0119 184.366 86.3396L177.927 91.0859L173.18 84.6459C172.853 84.2013 172.227 84.1065 171.782 84.4342C171.337 84.7619 171.243 85.3879 171.57 85.8325L176.91 93.0774ZM1.65088 55.578L2.64099 55.7184C2.91394 53.7924 3.30919 51.9126 3.8196 50.08L2.85627 49.8117L1.89293 49.5434C1.35922 51.4597 0.94603 53.4249 0.660772 55.4377L1.65088 55.578ZM7.42397 39.0146L8.28926 39.5159C10.1879 36.2385 12.493 33.1531 15.1508 30.2701L14.4155 29.5923L13.6803 28.9145C10.9311 31.8966 8.53651 35.0992 6.55868 38.5134L7.42397 39.0146ZM23.1588 21.716L23.7616 22.5139C26.7722 20.2393 30.0331 18.1445 33.5014 16.2379L33.0197 15.3616L32.538 14.4853C28.9919 16.4346 25.6492 18.5811 22.5559 20.9181L23.1588 21.716ZM43.6723 10.3386L44.0449 11.2666C47.5892 9.84317 51.2737 8.5889 55.0631 7.51001L54.7892 6.54823L54.5154 5.58645C50.662 6.68357 46.9114 7.96013 43.2996 9.41063L43.6723 10.3386ZM66.2554 3.87255L66.4367 4.85597C70.2356 4.15557 74.0983 3.62236 77.9934 3.2616L77.9012 2.26586L77.809 1.27012C73.8547 1.63636 69.9326 2.17774 66.074 2.88912L66.2554 3.87255ZM89.6512 1.70217L89.6546 2.70217C93.5512 2.68894 97.4483 2.85048 101.315 3.19169L101.403 2.19556L101.491 1.19944C97.5621 0.852752 93.6041 0.688745 89.6478 0.702179L89.6512 1.70217ZM113.06 3.79136L112.876 4.77423C116.722 5.49568 120.505 6.4086 124.192 7.51789L124.48 6.5603L124.768 5.60271C121.01 4.47194 117.158 3.54247 113.244 2.8085L113.06 3.79136ZM135.528 10.6095L135.127 11.5255C138.711 13.0955 142.156 14.8815 145.426 16.8887L145.949 16.0365L146.472 15.1842C143.119 13.1262 139.593 11.2982 135.93 9.69355L135.528 10.6095ZM155.462 22.9346L154.812 23.6946C157.749 26.2057 160.468 28.9528 162.931 31.9418L163.703 31.3059L164.474 30.6699C161.934 27.5874 159.133 24.7579 156.112 22.1745L155.462 22.9346ZM170.307 41.0012L169.433 41.4861C171.261 44.7842 172.828 48.3086 174.101 52.0655L175.048 51.7446L175.995 51.4237C174.684 47.5538 173.069 43.9196 171.182 40.5163L170.307 41.0012ZM177.878 63.1668L176.891 63.3285C177.49 66.9829 177.843 70.8194 177.928 74.8421L178.928 74.821L179.928 74.7998C179.841 70.6869 179.48 66.7563 178.865 63.0051L177.878 63.1668ZM178.458 86.5431L177.462 86.4456C177.274 88.3715 177.029 90.3343 176.726 92.3344L177.715 92.4841L178.704 92.6338C179.011 90.6 179.261 88.6023 179.453 86.6406L178.458 86.5431ZM176.91 93.0774C177.237 93.522 177.864 93.6168 178.308 93.2891L185.553 87.9496C185.998 87.6219 186.092 86.9959 185.765 86.5513C185.437 86.1067 184.811 86.0119 184.366 86.3396L177.927 91.0859L173.18 84.6459C172.853 84.2013 172.227 84.1065 171.782 84.4342C171.337 84.7619 171.243 85.3879 171.57 85.8325L176.91 93.0774ZM1.65088 55.578L2.64099 55.7184C2.91394 53.7924 3.30919 51.9126 3.8196 50.08L2.85627 49.8117L1.89293 49.5434C1.35922 51.4597 0.94603 53.4249 0.660772 55.4377L1.65088 55.578ZM7.42397 39.0146L8.28926 39.5159C10.1879 36.2385 12.493 33.1531 15.1508 30.2701L14.4155 29.5923L13.6803 28.9145C10.9311 31.8966 8.53651 35.0992 6.55868 38.5134L7.42397 39.0146ZM23.1588 21.716L23.7616 22.5139C26.7722 20.2393 30.0331 18.1445 33.5014 16.2379L33.0197 15.3616L32.538 14.4853C28.9919 16.4346 25.6492 18.5811 22.5559 20.9181L23.1588 21.716ZM43.6723 10.3386L44.0449 11.2666C47.5892 9.84317 51.2737 8.5889 55.0631 7.51001L54.7892 6.54823L54.5154 5.58645C50.662 6.68357 46.9114 7.96013 43.2996 9.41063L43.6723 10.3386ZM66.2554 3.87255L66.4367 4.85597C70.2356 4.15557 74.0983 3.62236 77.9934 3.2616L77.9012 2.26586L77.809 1.27012C73.8547 1.63636 69.9326 2.17774 66.074 2.88912L66.2554 3.87255ZM89.6512 1.70217L89.6546 2.70217C93.5512 2.68894 97.4483 2.85048 101.315 3.19169L101.403 2.19556L101.491 1.19944C97.5621 0.852752 93.6041 0.688745 89.6478 0.702179L89.6512 1.70217ZM113.06 3.79136L112.876 4.77423C116.722 5.49568 120.505 6.4086 124.192 7.51789L124.48 6.5603L124.768 5.60271C121.01 4.47194 117.158 3.54247 113.244 2.8085L113.06 3.79136ZM135.528 10.6095L135.127 11.5255C138.711 13.0955 142.156 14.8815 145.426 16.8887L145.949 16.0365L146.472 15.1842C143.119 13.1262 139.593 11.2982 135.93 9.69355L135.528 10.6095ZM155.462 22.9346L154.812 23.6946C157.749 26.2057 160.468 28.9528 162.931 31.9418L163.703 31.3059L164.474 30.6699C161.934 27.5874 159.133 24.7579 156.112 22.1745L155.462 22.9346ZM170.307 41.0012L169.433 41.4861C171.261 44.7842 172.828 48.3086 174.101 52.0655L175.048 51.7446L175.995 51.4237C174.684 47.5538 173.069 43.9196 171.182 40.5163L170.307 41.0012ZM177.878 63.1668L176.891 63.3285C177.49 66.9829 177.843 70.8194 177.928 74.8421L178.928 74.821L179.928 74.7998C179.841 70.6869 179.48 66.7563 178.865 63.0051L177.878 63.1668ZM178.458 86.5431L177.462 86.4456C177.274 88.3715 177.029 90.3343 176.726 92.3344L177.715 92.4841L178.704 92.6338C179.011 90.6 179.261 88.6023 179.453 86.6406L178.458 86.5431Z" />
</svg>
