<svg width="199" height="89" viewBox="0 0 199 89" fill="none" xmlns="http://www.w3.org/2000/svg">
  <path fill="currentColor"  d="M190.004 87.6824C189.52 88.3548 188.583 88.5077 187.911 88.0239L176.952 80.1391C176.28 79.6552 176.127 78.7178 176.611 78.0454C177.095 77.373 178.032 77.2201 178.705 77.7039L188.445 84.7127L195.454 74.9721C195.938 74.2997 196.875 74.1468 197.548 74.6307C198.22 75.1145 198.373 76.0519 197.889 76.7243L190.004 87.6824ZM188.787 86.8063C187.306 87.0478 187.306 87.0479 187.306 87.0481C187.306 87.0481 187.306 87.0482 187.306 87.0483C187.306 87.0484 187.306 87.0485 187.306 87.0486C187.306 87.0487 187.306 87.0488 187.306 87.0486C187.306 87.0484 187.306 87.0475 187.306 87.0462C187.305 87.0435 187.305 87.0386 187.303 87.0315C187.301 87.0174 187.297 86.9946 187.292 86.9634C187.281 86.901 187.263 86.8047 187.238 86.676C187.189 86.4187 187.111 86.0318 186.998 85.527C186.772 84.5171 186.407 83.0358 185.856 81.1751L187.294 80.7491L188.732 80.3231C189.304 82.2537 189.686 83.801 189.925 84.872C190.045 85.4075 190.129 85.8241 190.184 86.11C190.212 86.253 190.232 86.3634 190.246 86.4397C190.252 86.4778 190.257 86.5074 190.261 86.5284C190.263 86.5388 190.264 86.5471 190.265 86.5532C190.266 86.5562 190.266 86.5587 190.266 86.5607C190.267 86.5617 190.267 86.5625 190.267 86.5632C190.267 86.5635 190.267 86.5638 190.267 86.5641C190.267 86.5643 190.267 86.5644 190.267 86.5645C190.267 86.5647 190.267 86.5648 188.787 86.8063ZM182.878 68.9264L181.51 69.5411C179.984 66.1434 178.083 62.4196 175.728 58.5252L177.012 57.749L178.295 56.9728C180.719 60.98 182.675 64.8127 184.247 68.3117L182.878 68.9264ZM169.872 47.3989L168.691 48.3232C166.265 45.2229 163.536 42.1004 160.469 39.0241L161.531 37.965L162.593 36.9059C165.75 40.0711 168.557 43.2842 171.053 46.4746L169.872 47.3989ZM152.119 29.5857L151.189 30.7628C148.061 28.2922 144.669 25.8979 140.991 23.621L141.78 22.3456L142.57 21.0702C146.346 23.4082 149.832 25.8682 153.049 28.4085L152.119 29.5857ZM130.766 16.3237L130.117 17.6759C126.507 15.9429 122.674 14.3228 118.602 12.8415L119.115 11.4319L119.628 10.0223C123.792 11.5371 127.716 13.1954 131.415 14.9715L130.766 16.3237ZM107.142 7.67796L106.756 9.12743C102.881 8.09549 98.8218 7.18293 94.5694 6.40619L94.8389 4.93061L95.1085 3.45502C99.4375 4.24576 103.574 5.17562 107.528 6.22848L107.142 7.67796ZM82.3374 3.11116L82.173 4.60213C78.1605 4.15976 73.9961 3.83142 69.6741 3.62793L69.7446 2.12959L69.8152 0.631255C74.1982 0.837614 78.4252 1.17077 82.5018 1.62019L82.3374 3.11116ZM57.1576 1.89319L57.1701 3.39313C53.1191 3.42709 48.943 3.56476 44.6379 3.81346L44.5514 2.31596L44.4649 0.818454C48.8178 0.566992 53.0433 0.427617 57.145 0.393239L57.1576 1.89319ZM32.0168 3.32123L32.1688 4.8135C28.1391 5.22404 24.0055 5.72701 19.7655 6.32747L19.5551 4.84229L19.3448 3.35711C23.6226 2.7513 27.795 2.24356 31.8648 1.82895L32.0168 3.32123ZM7.14999 6.82642L7.41249 8.30328C5.33987 8.67167 3.24358 9.06231 1.12334 9.47571L0.836284 8.00343L0.549224 6.53116C2.68559 6.11461 4.79826 5.72092 6.88748 5.34957L7.14999 6.82642ZM190.004 87.6824C189.52 88.3548 188.583 88.5077 187.911 88.0239L176.952 80.1391C176.28 79.6552 176.127 78.7178 176.611 78.0454C177.095 77.373 178.032 77.2201 178.705 77.7039L188.445 84.7127L195.454 74.9721C195.938 74.2997 196.875 74.1468 197.548 74.6307C198.22 75.1145 198.373 76.0519 197.889 76.7243L190.004 87.6824ZM188.787 86.8063C187.306 87.0478 187.306 87.0479 187.306 87.0481C187.306 87.0481 187.306 87.0482 187.306 87.0483C187.306 87.0484 187.306 87.0485 187.306 87.0486C187.306 87.0487 187.306 87.0488 187.306 87.0486C187.306 87.0484 187.306 87.0475 187.306 87.0462C187.305 87.0435 187.305 87.0386 187.303 87.0315C187.301 87.0174 187.297 86.9946 187.292 86.9634C187.281 86.901 187.263 86.8047 187.238 86.676C187.189 86.4187 187.111 86.0318 186.998 85.527C186.772 84.5171 186.407 83.0358 185.856 81.1751L187.294 80.7491L188.732 80.3231C189.304 82.2537 189.686 83.801 189.925 84.872C190.045 85.4075 190.129 85.8241 190.184 86.11C190.212 86.253 190.232 86.3634 190.246 86.4397C190.252 86.4778 190.257 86.5074 190.261 86.5284C190.263 86.5388 190.264 86.5471 190.265 86.5532C190.266 86.5562 190.266 86.5587 190.266 86.5607C190.267 86.5617 190.267 86.5625 190.267 86.5632C190.267 86.5635 190.267 86.5638 190.267 86.5641C190.267 86.5643 190.267 86.5644 190.267 86.5645C190.267 86.5647 190.267 86.5648 188.787 86.8063ZM182.878 68.9264L181.51 69.5411C179.984 66.1434 178.083 62.4196 175.728 58.5252L177.012 57.749L178.295 56.9728C180.719 60.98 182.675 64.8127 184.247 68.3117L182.878 68.9264ZM169.872 47.3989L168.691 48.3232C166.265 45.2229 163.536 42.1004 160.469 39.0241L161.531 37.965L162.593 36.9059C165.75 40.0711 168.557 43.2842 171.053 46.4746L169.872 47.3989ZM152.119 29.5857L151.189 30.7628C148.061 28.2922 144.669 25.8979 140.991 23.621L141.78 22.3456L142.57 21.0702C146.346 23.4082 149.832 25.8682 153.049 28.4085L152.119 29.5857ZM130.766 16.3237L130.117 17.6759C126.507 15.9429 122.674 14.3228 118.602 12.8415L119.115 11.4319L119.628 10.0223C123.792 11.5371 127.716 13.1954 131.415 14.9715L130.766 16.3237ZM107.142 7.67796L106.756 9.12743C102.881 8.09549 98.8218 7.18293 94.5694 6.40619L94.8389 4.93061L95.1085 3.45502C99.4375 4.24576 103.574 5.17562 107.528 6.22848L107.142 7.67796ZM82.3374 3.11116L82.173 4.60213C78.1605 4.15976 73.9961 3.83142 69.6741 3.62793L69.7446 2.12959L69.8152 0.631255C74.1982 0.837614 78.4252 1.17077 82.5018 1.62019L82.3374 3.11116ZM57.1576 1.89319L57.1701 3.39313C53.1191 3.42709 48.943 3.56476 44.6379 3.81346L44.5514 2.31596L44.4649 0.818454C48.8178 0.566992 53.0433 0.427617 57.145 0.393239L57.1576 1.89319ZM32.0168 3.32123L32.1688 4.8135C28.1391 5.22404 24.0055 5.72701 19.7655 6.32747L19.5551 4.84229L19.3448 3.35711C23.6226 2.7513 27.795 2.24356 31.8648 1.82895L32.0168 3.32123ZM7.14999 6.82642L7.41249 8.30328C5.33987 8.67167 3.24358 9.06231 1.12334 9.47571L0.836284 8.00343L0.549224 6.53116C2.68559 6.11461 4.79826 5.72092 6.88748 5.34957L7.14999 6.82642Z" />
</svg>
