<svg width="148" height="104" viewBox="0 0 148 104" fill="none" xmlns="http://www.w3.org/2000/svg">
  <path fill="currentColor" d="M142.063 103.347C141.739 103.795 141.114 103.895 140.666 103.571L133.376 98.2938C132.929 97.9699 132.829 97.3447 133.152 96.8974C133.476 96.45 134.101 96.3498 134.549 96.6737L141.029 101.365L145.72 94.8843C146.044 94.4369 146.669 94.3368 147.117 94.6606C147.564 94.9844 147.664 95.6096 147.34 96.057L142.063 103.347ZM1.23218 86.8733L0.234506 86.8051C0.369562 84.8295 0.539415 82.8838 0.742909 80.9683L1.73731 81.074L2.73172 81.1796C2.5309 83.0698 2.36322 84.9906 2.22985 86.9415L1.23218 86.8733ZM3.40438 69.6895L2.42171 69.5041C3.15989 65.5905 4.04772 61.8261 5.07312 58.2156L6.03508 58.4888L6.99703 58.762C5.98855 62.313 5.1144 66.0187 4.38705 69.8748L3.40438 69.6895ZM9.74577 47.5439L8.81681 47.1737C10.2967 43.4599 11.9369 39.9499 13.7197 36.6508L14.5994 37.1262L15.4792 37.6016C13.7345 40.8301 12.127 44.2697 10.6747 47.9141L9.74577 47.5439ZM20.7422 27.3507L19.9341 26.7616C22.3 23.5161 24.8279 20.5559 27.4915 17.8918L28.1987 18.5989L28.9058 19.3059C26.3186 21.8935 23.8577 24.7744 21.5503 27.9398L20.7422 27.3507ZM37.024 11.2078L36.4557 10.385C39.757 8.10511 43.1951 6.21831 46.7311 4.74086L47.1166 5.66355L47.5021 6.58625C44.0997 8.00787 40.7837 9.82665 37.5922 12.0307L37.024 11.2078ZM58.1661 2.47025L58.0031 1.48362C61.8685 0.845017 65.793 0.673298 69.7306 0.985095L69.6516 1.98197L69.5727 2.97885C65.7978 2.67994 62.0358 2.84449 58.3291 3.45688L58.1661 2.47025ZM80.9221 4.23873L81.2302 3.28738C84.8352 4.45492 88.4096 6.04397 91.9186 8.06511L91.4195 8.93165L90.9203 9.79818C87.5279 7.84413 84.0811 6.31297 80.614 5.19008L80.9221 4.23873ZM100.845 15.5808L101.49 14.8165C104.334 17.2154 107.107 19.9311 109.79 22.9699L109.04 23.6317L108.29 24.2934C105.669 21.3242 102.966 18.6777 100.201 16.3452L100.845 15.5808ZM116.132 32.7648L116.957 32.1991C119.053 35.2549 121.072 38.543 123.002 42.0674L122.125 42.5476L121.248 43.0278C119.349 39.5592 117.364 36.3285 115.308 33.3305L116.132 32.7648ZM127.21 52.8777L128.124 52.4733C129.633 55.8861 131.068 59.4771 132.421 63.249L131.479 63.5865L130.538 63.9241C129.201 60.1955 127.784 56.6492 126.295 53.2821L127.21 52.8777ZM135.024 74.5548L135.984 74.2762C137.026 77.8688 138 81.6015 138.901 85.4762L137.927 85.7026L136.953 85.929C136.06 82.0881 135.095 78.3902 134.064 74.8334L135.024 74.5548ZM140.262 96.9799L141.246 96.8C141.594 98.7038 141.926 100.638 142.24 102.603L141.253 102.761L140.265 102.919C139.953 100.969 139.624 99.049 139.278 97.1598L140.262 96.9799ZM142.063 103.347C141.739 103.795 141.114 103.895 140.666 103.571L133.376 98.2938C132.929 97.9699 132.829 97.3447 133.152 96.8974C133.476 96.45 134.101 96.3498 134.549 96.6737L141.029 101.365L145.72 94.8843C146.044 94.4369 146.669 94.3368 147.117 94.6606C147.564 94.9844 147.664 95.6096 147.34 96.057L142.063 103.347ZM1.23218 86.8733L0.234506 86.8051C0.369562 84.8295 0.539415 82.8838 0.742909 80.9683L1.73731 81.074L2.73172 81.1796C2.5309 83.0698 2.36322 84.9906 2.22985 86.9415L1.23218 86.8733ZM3.40438 69.6895L2.42171 69.5041C3.15989 65.5905 4.04772 61.8261 5.07312 58.2156L6.03508 58.4888L6.99703 58.762C5.98855 62.313 5.1144 66.0187 4.38705 69.8748L3.40438 69.6895ZM9.74577 47.5439L8.81681 47.1737C10.2967 43.4599 11.9369 39.9499 13.7197 36.6508L14.5994 37.1262L15.4792 37.6016C13.7345 40.8301 12.127 44.2697 10.6747 47.9141L9.74577 47.5439ZM20.7422 27.3507L19.9341 26.7616C22.3 23.5161 24.8279 20.5559 27.4915 17.8918L28.1987 18.5989L28.9058 19.3059C26.3186 21.8935 23.8577 24.7744 21.5503 27.9398L20.7422 27.3507ZM37.024 11.2078L36.4557 10.385C39.757 8.10511 43.1951 6.21831 46.7311 4.74086L47.1166 5.66355L47.5021 6.58625C44.0997 8.00787 40.7837 9.82665 37.5922 12.0307L37.024 11.2078ZM58.1661 2.47025L58.0031 1.48362C61.8685 0.845017 65.793 0.673298 69.7306 0.985095L69.6516 1.98197L69.5727 2.97885C65.7978 2.67994 62.0358 2.84449 58.3291 3.45688L58.1661 2.47025ZM80.9221 4.23873L81.2302 3.28738C84.8352 4.45492 88.4096 6.04397 91.9186 8.06511L91.4195 8.93165L90.9203 9.79818C87.5279 7.84413 84.0811 6.31297 80.614 5.19008L80.9221 4.23873ZM100.845 15.5808L101.49 14.8165C104.334 17.2154 107.107 19.9311 109.79 22.9699L109.04 23.6317L108.29 24.2934C105.669 21.3242 102.966 18.6777 100.201 16.3452L100.845 15.5808ZM116.132 32.7648L116.957 32.1991C119.053 35.2549 121.072 38.543 123.002 42.0674L122.125 42.5476L121.248 43.0278C119.349 39.5592 117.364 36.3285 115.308 33.3305L116.132 32.7648ZM127.21 52.8777L128.124 52.4733C129.633 55.8861 131.068 59.4771 132.421 63.249L131.479 63.5865L130.538 63.9241C129.201 60.1955 127.784 56.6492 126.295 53.2821L127.21 52.8777ZM135.024 74.5548L135.984 74.2762C137.026 77.8688 138 81.6015 138.901 85.4762L137.927 85.7026L136.953 85.929C136.06 82.0881 135.095 78.3902 134.064 74.8334L135.024 74.5548ZM140.262 96.9799L141.246 96.8C141.594 98.7038 141.926 100.638 142.24 102.603L141.253 102.761L140.265 102.919C139.953 100.969 139.624 99.049 139.278 97.1598L140.262 96.9799Z" />
</svg>
