<svg width="101" height="35" viewBox="0 0 101 35" fill="none" xmlns="http://www.w3.org/2000/svg">
  <path fill="currentColor" d="M100.35 29.7599C100.753 29.6676 101.006 29.2655 100.914 28.8616L99.4104 22.2812C99.3182 21.8774 98.916 21.6248 98.5122 21.7171C98.1084 21.8093 97.8558 22.2115 97.9481 22.6153L99.2844 28.4646L93.4351 29.8009C93.0313 29.8931 92.7787 30.2953 92.871 30.6991C92.9633 31.1029 93.3654 31.3555 93.7692 31.2632L100.35 29.7599ZM18.8555 34.2755C19.1928 34.5159 19.6611 34.4373 19.9015 34.1C20.1419 33.7627 20.0633 33.2944 19.726 33.054L18.8555 34.2755ZM100.183 29.0287L100.582 28.3936C65.092 6.10412 32.2702 -1.6814 14.4479 0.645063C9.98616 1.22749 6.38938 2.45284 3.92564 4.31214C1.43059 6.19506 0.108729 8.72656 0.261954 11.787C0.412626 14.7965 1.98409 18.2128 5.01561 21.9494C8.05493 25.6956 12.6124 29.8267 18.8555 34.2755L19.2907 33.6648L19.726 33.054C13.5494 28.6525 9.10636 24.6108 6.18047 21.0043C3.24678 17.3883 1.88825 14.2721 1.76008 11.712C1.63446 9.20289 2.6849 7.12768 4.82921 5.50945C7.00482 3.8676 10.3145 2.69736 14.6421 2.13244C31.9775 -0.130461 64.4411 7.46663 99.7837 29.6638L100.183 29.0287Z" />
</svg>
