<svg width="97" height="36" viewBox="0 0 97 36" fill="none" xmlns="http://www.w3.org/2000/svg">
  <path fill="currentColor" d="M90.4043 31.5503C90.8857 31.8209 91.4954 31.6501 91.766 31.1686L96.1765 23.3234C96.4472 22.842 96.2763 22.2323 95.7949 21.9617C95.3134 21.691 94.7038 21.8619 94.4331 22.3433L90.5127 29.3168L83.5392 25.3964C83.0577 25.1258 82.4481 25.2966 82.1774 25.778C81.9068 26.2595 82.0776 26.8691 82.559 27.1398L90.4043 31.5503ZM0.999941 35.6172L1.97698 35.8303C2.402 33.8812 2.95244 32.0143 3.61653 30.2301L2.67934 29.8813L1.74215 29.5324C1.0449 31.4057 0.467917 33.3634 0.0229013 35.4042L0.999941 35.6172ZM8.41113 19.468L9.20712 20.0733C11.5747 16.9599 14.3676 14.2344 17.472 11.9074L16.8722 11.1073L16.2725 10.3071C13.0288 12.7384 10.1015 15.5932 7.61514 18.8627L8.41113 19.468ZM27.2171 5.21239L27.6045 6.1343C31.1908 4.62725 34.9682 3.52583 38.8217 2.84054L38.6466 1.85598L38.4716 0.871432C34.477 1.5818 30.5568 2.72426 26.8297 4.29048L27.2171 5.21239ZM50.5335 1.04446L50.4931 2.04365C54.4252 2.2028 58.3116 2.79773 62.0336 3.83598L62.3023 2.87276L62.571 1.90953C58.6932 0.827815 54.6532 0.210391 50.574 0.0452816L50.5335 1.04446ZM73.2565 7.52223L72.7445 8.38119C76.0654 10.3609 79.0916 12.8065 81.7018 15.7265L82.4473 15.06L83.1929 14.3936C80.4396 11.3135 77.2534 8.74071 73.7686 6.66327L73.2565 7.52223ZM88.8768 25.049L87.9625 25.4542C88.7295 27.1846 89.3897 29.0156 89.9314 30.9484L90.8943 30.6786L91.8572 30.4087C91.2901 28.385 90.5975 26.4635 89.791 24.6438L88.8768 25.049ZM90.4043 31.5503C90.8857 31.8209 91.4954 31.6501 91.766 31.1686L96.1765 23.3234C96.4472 22.842 96.2763 22.2323 95.7949 21.9617C95.3134 21.691 94.7038 21.8619 94.4331 22.3433L90.5127 29.3168L83.5392 25.3964C83.0577 25.1258 82.4481 25.2966 82.1774 25.778C81.9068 26.2595 82.0776 26.8691 82.559 27.1398L90.4043 31.5503ZM0.999941 35.6172L1.97698 35.8303C2.402 33.8812 2.95244 32.0143 3.61653 30.2301L2.67934 29.8813L1.74215 29.5324C1.0449 31.4057 0.467917 33.3634 0.0229013 35.4042L0.999941 35.6172ZM8.41113 19.468L9.20712 20.0733C11.5747 16.9599 14.3676 14.2344 17.472 11.9074L16.8722 11.1073L16.2725 10.3071C13.0288 12.7384 10.1015 15.5932 7.61514 18.8627L8.41113 19.468ZM27.2171 5.21239L27.6045 6.1343C31.1908 4.62725 34.9682 3.52583 38.8217 2.84054L38.6466 1.85598L38.4716 0.871432C34.477 1.5818 30.5568 2.72426 26.8297 4.29048L27.2171 5.21239ZM50.5335 1.04446L50.4931 2.04365C54.4252 2.2028 58.3116 2.79773 62.0336 3.83598L62.3023 2.87276L62.571 1.90953C58.6932 0.827815 54.6532 0.210391 50.574 0.0452816L50.5335 1.04446ZM73.2565 7.52223L72.7445 8.38119C76.0654 10.3609 79.0916 12.8065 81.7018 15.7265L82.4473 15.06L83.1929 14.3936C80.4396 11.3135 77.2534 8.74071 73.7686 6.66327L73.2565 7.52223ZM88.8768 25.049L87.9625 25.4542C88.7295 27.1846 89.3897 29.0156 89.9314 30.9484L90.8943 30.6786L91.8572 30.4087C91.2901 28.385 90.5975 26.4635 89.791 24.6438L88.8768 25.049Z" />
</svg>
