<svg width="54" height="30" viewBox="0 0 54 30" fill="none" xmlns="http://www.w3.org/2000/svg">
  <path fill="currentColor" d="M52.9408 25.756C53.355 25.7615 53.6952 25.4302 53.7007 25.0161L53.7906 18.2667C53.7961 17.8525 53.4648 17.5123 53.0506 17.5067C52.6364 17.5012 52.2962 17.8325 52.2907 18.2467L52.2109 24.2462L46.2114 24.1663C45.7972 24.1608 45.457 24.4921 45.4515 24.9063C45.446 25.3205 45.7772 25.6607 46.1914 25.6662L52.9408 25.756ZM10.0114 29.4652C10.2811 29.7795 10.7546 29.8157 11.0689 29.5459C11.3833 29.2762 11.4194 28.8027 11.1496 28.4883L10.0114 29.4652ZM52.9508 25.0061L53.4881 24.4829C44.1652 14.9084 35.1848 8.44214 27.3483 4.61455C19.5332 0.797396 12.7757 -0.432986 7.93818 0.599577C5.50609 1.1187 3.53131 2.21777 2.18637 3.87741C0.839055 5.53999 0.178599 7.69775 0.256126 10.2298C0.409985 15.2549 3.46502 21.8373 10.0114 29.4652L10.5805 28.9768L11.1496 28.4883C4.68532 20.956 1.89368 14.6993 1.75542 10.1839C1.68689 7.94569 2.26902 6.15789 3.35175 4.82181C4.43687 3.48279 6.0796 2.53008 8.2513 2.06653C12.6214 1.13375 19.0166 2.21441 26.69 5.96237C34.3421 9.6999 43.1859 16.0528 52.4135 25.5293L52.9508 25.0061Z" />
</svg>
