<svg width="85" height="23" viewBox="0 0 85 23" fill="none" xmlns="http://www.w3.org/2000/svg">
  <path fill="currentColor" d="M79.315 22.8744C79.8242 23.0882 80.4103 22.8488 80.6241 22.3395L84.1087 14.0415C84.3225 13.5323 84.0831 12.9461 83.5738 12.7323C83.0646 12.5185 82.4785 12.7579 82.2647 13.2671L79.1673 20.6432L71.7912 17.5458C71.282 17.332 70.6959 17.5714 70.4821 18.0806C70.2682 18.5899 70.5077 19.176 71.0169 19.3898L79.315 22.8744ZM1 15.1014L1.71536 15.8001C3.00456 14.4803 4.36884 13.2635 5.79735 12.1461L5.18124 11.3585L4.56512 10.5708C3.06824 11.7417 1.63744 13.0177 0.284644 14.4026L1 15.1014ZM14.7998 5.62455L15.2046 6.53895C18.5529 5.05667 22.0766 3.95676 25.6827 3.21118L25.4802 2.23189L25.2778 1.2526C21.5434 2.0247 17.8829 3.16604 14.395 4.71014L14.7998 5.62455ZM36.6249 1.01L36.6427 2.00985C40.3639 1.94367 44.0678 2.21211 47.6554 2.78359L47.8127 1.79604L47.97 0.808489C44.2683 0.21882 40.4472 -0.0581284 36.6071 0.0101625L36.6249 1.01ZM58.6786 4.56658L58.3398 5.50741C61.9456 6.80615 65.2693 8.43625 68.1781 10.349L68.7276 9.51344L69.277 8.67789C66.2219 6.66901 62.7541 4.97157 59.0175 3.62574L58.6786 4.56658ZM76.9426 17.0851L76.1377 17.6786C77.2261 19.1545 78.1137 20.7083 78.7764 22.3306L79.7021 21.9524L80.6279 21.5742C79.8976 19.7866 78.9256 18.0892 77.7474 16.4916L76.9426 17.0851ZM79.315 22.8744C79.8242 23.0882 80.4103 22.8488 80.6241 22.3395L84.1087 14.0415C84.3225 13.5323 84.0831 12.9461 83.5738 12.7323C83.0646 12.5185 82.4785 12.7579 82.2647 13.2671L79.1673 20.6432L71.7912 17.5458C71.282 17.332 70.6959 17.5714 70.4821 18.0806C70.2682 18.5899 70.5077 19.176 71.0169 19.3898L79.315 22.8744ZM1 15.1014L1.71536 15.8001C3.00456 14.4803 4.36884 13.2635 5.79735 12.1461L5.18124 11.3585L4.56512 10.5708C3.06824 11.7417 1.63744 13.0177 0.284644 14.4026L1 15.1014ZM14.7998 5.62455L15.2046 6.53895C18.5529 5.05667 22.0766 3.95676 25.6827 3.21118L25.4802 2.23189L25.2778 1.2526C21.5434 2.0247 17.8829 3.16604 14.395 4.71014L14.7998 5.62455ZM36.6249 1.01L36.6427 2.00985C40.3639 1.94367 44.0678 2.21211 47.6554 2.78359L47.8127 1.79604L47.97 0.808489C44.2683 0.21882 40.4472 -0.0581284 36.6071 0.0101625L36.6249 1.01ZM58.6786 4.56658L58.3398 5.50741C61.9456 6.80615 65.2693 8.43625 68.1781 10.349L68.7276 9.51344L69.277 8.67789C66.2219 6.66901 62.7541 4.97157 59.0175 3.62574L58.6786 4.56658ZM76.9426 17.0851L76.1377 17.6786C77.2261 19.1545 78.1137 20.7083 78.7764 22.3306L79.7021 21.9524L80.6279 21.5742C79.8976 19.7866 78.9256 18.0892 77.7474 16.4916L76.9426 17.0851Z" />
</svg>
